<svg width="22" height="19" viewBox="0 0 22 19" fill="none" xmlns="http://www.w3.org/2000/svg">
<path d="M19.7255 9.78586C21.8497 7.54338 21.8497 3.90213 19.7255 1.68186C17.6012 -0.560619 14.1519 -0.560619 12.0277 1.68186L10.9971 2.792L9.96655 1.70406C7.8423 -0.560619 4.39303 -0.560619 2.28981 1.68186C1.25924 2.76979 0.712402 4.21297 0.712402 5.74496C0.712402 7.27695 1.28027 8.72013 2.28981 9.80806L10.9971 19L19.7255 9.78586ZM2.05846 5.74496C2.05846 4.59042 2.4791 3.52469 3.25729 2.72539C4.05651 1.88168 5.08709 1.45983 6.11766 1.45983C7.14824 1.45983 8.17882 1.88168 8.97804 2.72539L10.9971 4.83465L13.0162 2.70318C14.5936 1.03798 17.1806 1.03798 18.737 2.70318C19.4941 3.50248 19.9358 4.56822 19.9358 5.72276C19.9358 6.8773 19.5151 7.94303 18.737 8.74233L10.9971 16.9351L3.25729 8.76453C2.50014 7.94303 2.05846 6.8773 2.05846 5.74496Z" fill="black"/>
</svg>
