<svg width="19" height="20" viewBox="0 0 19 20" fill="none" xmlns="http://www.w3.org/2000/svg">
<path d="M3.0117 18.1422C3.07151 18.8126 3.60976 19.3002 4.26762 19.3002H14.594C15.2519 19.3002 15.7901 18.7923 15.8499 18.1422L17.0061 5.79004H1.85547L3.0117 18.1422Z" fill="white"/>
<path d="M17.0067 1.93002H11.9631V1.27991C11.9631 0.568849 11.4049 0 10.7072 0H8.17544C7.47771 0 6.91952 0.568849 6.91952 1.27991V1.93002H1.85601C1.15828 1.93002 0.600098 2.49887 0.600098 3.20993C0.600098 3.92099 1.15828 4.48984 1.85601 4.48984H17.0067C17.7044 4.48984 18.2626 3.92099 18.2626 3.20993C18.2626 2.49887 17.7044 1.93002 17.0067 1.93002Z" fill="white"/>
</svg>
